<?xml version="1.0" standalone="no"?>
<!DOCTYPE svg PUBLIC "-//W3C//DTD SVG 1.1//EN" "http://www.w3.org/Graphics/SVG/1.1/DTD/svg11.dtd">
<svg width="512px" height="512px" version="1.1" xmlns="http://www.w3.org/2000/svg" xmlns:xlink="http://www.w3.org/1999/xlink" xml:space="preserve" style="fill-rule:evenodd;clip-rule:evenodd;stroke-linecap:round;stroke-linejoin:round;stroke-miterlimit:1.41421;">
    <g>
        <g>
            <g>
                <path d="M505.455,54.9575C472.32,49.2677 470.312,99.1369 437.177,93.1124C428.475,77.7166 419.773,61.986 411.071,46.5902C444.206,52.2799 446.214,2.4108 479.349,8.43526C488.051,24.1658 496.753,39.5616 505.455,54.9575Z" style="fill:rgb(250,248,209);fill-rule:nonzero;stroke-width:6.69px;stroke:rgb(25,43,59);"/>
                <path d="M411.406,46.9249C444.541,52.6146 446.549,2.74549 479.683,8.76995C488.385,24.1658 497.087,39.8963 505.789,55.2922C472.655,49.6024 470.647,99.4715 437.512,93.4471" style="fill:rgb(250,248,209);fill-rule:nonzero;stroke-width:6.69px;stroke:rgb(25,43,59);"/>
            </g>
            <g>
                <path d="M411.406,46.9249L481.022,170.761" style="fill:rgb(255,224,103);fill-rule:nonzero;stroke-width:6.69px;stroke:rgb(25,43,59);"/>
            </g>
            <g>
                <path d="M452.239,72.3615C450.9,73.3656 449.561,74.3696 448.222,75.039C447.218,73.7002 446.549,72.3615 445.545,71.0227C442.198,73.0309 438.516,74.3696 434.165,75.039C433.831,74.3696 433.496,73.7002 432.826,73.0309C433.496,67.6758 434.165,61.3166 434.165,54.6228C435.839,53.6187 437.177,52.6146 438.851,51.6106C441.528,55.9616 444.541,60.3126 447.218,64.6636C447.888,64.3289 448.557,63.6595 448.892,63.3248C449.561,64.6636 450.565,65.6676 451.235,67.0064C450.565,67.3411 449.896,68.0105 449.561,68.3452C450.23,69.6839 451.235,71.0227 452.239,72.3615ZM438.516,58.9738C438.516,62.6554 438.516,66.337 438.182,70.0186C440.19,69.3492 441.863,68.3452 443.537,67.3411C442.533,66.0023 441.863,64.6636 440.859,63.3248C440.19,61.986 439.186,60.3126 438.516,58.9738L438.516,58.9738Z" style="fill:black;fill-rule:nonzero;stroke-width:1px;stroke-linecap:buttstroke:rgb(25,43,59);"/>
                <path d="M461.61,40.9004C463.283,43.2433 464.622,45.9208 466.296,48.2636C469.308,52.9493 467.634,58.3044 464.288,61.986C460.606,65.6676 455.92,66.0023 452.908,61.3166C451.235,58.9738 449.896,56.2963 448.222,53.9534C445.21,49.6024 446.549,43.9126 450.565,39.8963C453.912,36.5494 458.932,36.5494 461.61,40.9004ZM462.949,52.2799C462.614,51.6106 462.279,51.2759 461.945,50.6065C460.941,48.933 459.937,47.2596 458.932,45.5861C458.598,44.9167 458.263,44.582 457.928,43.9126C456.59,42.2392 454.581,42.5739 453.243,44.2473C451.569,45.9208 450.9,47.9289 451.904,50.2718C452.239,50.9412 452.573,51.6106 452.908,51.9453C453.912,53.6187 454.916,55.2922 455.92,56.9656C456.255,57.635 456.59,57.9697 456.924,58.6391C458.263,60.3126 460.271,59.9779 461.61,58.3044C463.283,56.6309 463.953,54.2881 462.949,52.2799Z" style="fill:black;fill-rule:nonzero;stroke-width:1px;stroke-linecap:buttstroke:rgb(25,43,59);"/>
                <path d="M487.716,45.5861C486.042,45.9208 484.369,46.5902 483.03,46.9249C482.026,45.5861 481.357,44.2473 480.353,42.9086C476.671,44.2473 473.324,46.5902 470.312,48.933C469.977,48.2636 469.643,47.5943 468.973,46.9249C468.638,39.5616 468.638,32.5331 468.638,26.1739C470.312,25.5046 471.985,24.8352 473.994,24.5005C476.671,28.8515 479.683,33.2025 482.361,37.5535C483.03,37.2188 484.034,37.2188 484.704,37.2188C485.373,38.5576 486.377,39.5616 487.047,40.9004C486.042,40.9004 485.373,41.2351 484.704,41.2351C486.042,42.5739 487.047,43.9126 487.716,45.5861ZM473.324,30.8596C472.989,34.5413 472.989,38.2229 472.989,41.9045C474.663,40.9004 476.336,39.8963 478.345,39.2269C477.34,37.8882 476.671,36.5494 475.667,35.2106C474.998,33.5372 474.328,32.1984 473.324,30.8596L473.324,30.8596Z" style="fill:black;fill-rule:nonzero;stroke-width:1px;stroke-linecap:buttstroke:rgb(25,43,59);"/>
            </g>
            <g>
                <path d="M176.787,338.442C170.762,338.442 164.403,337.438 157.375,334.091C140.975,326.393 129.261,308.654 122.901,281.544C117.881,260.459 107.506,247.406 92.1097,243.055C70.6894,237.03 44.5834,249.414 39.2284,254.434C36.2161,257.446 31.5304,257.446 28.5182,254.434C25.506,251.422 25.506,246.736 28.5182,243.724C35.8814,236.026 67.0078,220.295 96.126,228.328C110.852,232.344 129.595,244.393 137.628,277.863C142.983,300.287 151.685,314.344 163.734,320.034C177.122,326.393 191.179,320.034 191.179,320.034C194.86,318.36 199.546,319.699 201.219,323.381C202.893,327.062 201.554,331.748 197.872,333.421C197.538,334.091 188.501,338.442 176.787,338.442Z" style="fill:rgb(204,204,204);fill-rule:nonzero;stroke-width:6.69px;stroke:rgb(25,43,59);"/>
                <path d="M9.77544,247.74C17.1387,242.05 27.5141,243.724 33.2039,251.087C38.8937,258.45 37.2202,268.826 29.857,274.516C24.8366,278.197 18.4774,278.867 13.1224,276.524C10.7795,275.52 9.77544,272.842 10.7795,270.499C11.7836,268.156 14.4611,267.152 16.804,268.156C19.1468,269.161 22.159,268.826 24.5019,267.152C27.8488,264.81 28.5182,259.789 26.1754,256.777C23.8325,253.43 18.8121,252.761 15.7999,255.103C13.7917,256.442 12.7877,258.45 12.7877,260.793C12.7877,263.471 10.4448,265.479 8.10197,265.144C5.42444,265.144 3.41628,262.801 3.75098,260.459C3.41628,255.438 5.75913,250.752 9.77544,247.74Z" style="fill:rgb(204,204,204);fill-rule:nonzero;stroke-width:6.69px;stroke:rgb(25,43,59);"/>
                <path d="M189.17,321.373C189.17,321.373 187.832,328.736 191.848,336.434" style="fill:rgb(204,204,204);fill-rule:nonzero;stroke-width:3.35px;stroke:rgb(25,43,59);"/>
                <path d="M179.799,323.046C179.799,323.046 174.779,330.744 177.791,340.115" style="fill:rgb(204,204,204);fill-rule:nonzero;stroke-width:3.35px;stroke:rgb(25,43,59);"/>
                <path d="M169.758,322.377C169.758,322.377 162.395,329.07 163.064,336.099" style="fill:rgb(204,204,204);fill-rule:nonzero;stroke-width:3.35px;stroke:rgb(25,43,59);"/>
                <path d="M159.048,317.691C159.048,317.691 149.677,324.385 148.673,329.74" style="fill:rgb(204,204,204);fill-rule:nonzero;stroke-width:3.35px;stroke:rgb(25,43,59);"/>
                <path d="M152.02,310.997C152.02,310.997 143.318,313.34 139.636,319.364" style="fill:rgb(204,204,204);fill-rule:nonzero;stroke-width:3.35px;stroke:rgb(25,43,59);"/>
                <path d="M145.66,300.956C145.66,300.956 135.285,303.634 132.273,307.985" style="fill:rgb(204,204,204);fill-rule:nonzero;stroke-width:3.35px;stroke:rgb(25,43,59);"/>
                <path d="M140.975,289.577C140.975,289.577 131.603,289.577 126.918,295.267" style="fill:rgb(204,204,204);fill-rule:nonzero;stroke-width:3.35px;stroke:rgb(25,43,59);"/>
                <path d="M137.628,278.197C137.628,278.197 128.926,276.858 122.901,281.544" style="fill:rgb(204,204,204);fill-rule:nonzero;stroke-width:3.35px;stroke:rgb(25,43,59);"/>
                <path d="M133.946,265.814C133.946,265.814 124.91,264.14 119.22,269.83" style="fill:rgb(204,204,204);fill-rule:nonzero;stroke-width:3.35px;stroke:rgb(25,43,59);"/>
                <path d="M126.918,251.757C126.918,251.757 119.889,252.426 113.53,259.12" style="fill:rgb(204,204,204);fill-rule:nonzero;stroke-width:3.35px;stroke:rgb(25,43,59);"/>
                <path d="M116.542,239.708C116.542,239.708 107.84,244.728 106.167,250.752" style="fill:rgb(204,204,204);fill-rule:nonzero;stroke-width:3.35px;stroke:rgb(25,43,59);"/>
                <path d="M104.828,232.01C104.828,232.01 96.4607,236.361 96.7954,245.063" style="fill:rgb(204,204,204);fill-rule:nonzero;stroke-width:3.35px;stroke:rgb(25,43,59);"/>
                <path d="M88.7628,227.324C88.7628,227.324 85.4159,235.022 86.7547,242.385" style="fill:rgb(204,204,204);fill-rule:nonzero;stroke-width:3.35px;stroke:rgb(25,43,59);"/>
                <path d="M74.371,226.655C74.371,226.655 72.3629,236.695 74.7057,242.385" style="fill:rgb(204,204,204);fill-rule:nonzero;stroke-width:3.35px;stroke:rgb(25,43,59);"/>
                <path d="M59.6446,228.997C59.6446,228.997 59.3099,238.704 63.6609,243.724" style="fill:rgb(204,204,204);fill-rule:nonzero;stroke-width:3.35px;stroke:rgb(25,43,59);"/>
                <path d="M45.5875,234.018C45.5875,234.018 45.5875,240.042 50.9426,247.74" style="fill:rgb(204,204,204);fill-rule:nonzero;stroke-width:3.35px;stroke:rgb(25,43,59);"/>
            </g>
            <g>
                <path d="M447.218,143.651C446.884,144.655 439.855,169.422 413.08,183.814C394.672,193.855 377.602,206.573 387.978,243.055C391.659,256.777 390.321,268.491 383.627,277.528C371.912,293.593 348.484,294.262 347.48,294.597L347.145,294.597C343.129,294.597 339.782,291.25 339.782,287.234C339.782,283.218 342.794,279.536 347.145,279.536C347.48,279.536 364.215,278.867 371.578,268.826C375.259,263.805 375.929,256.442 373.586,247.071C360.868,201.887 384.296,182.475 406.051,170.761C427.137,159.381 432.826,139.969 432.826,139.635" style="fill:rgb(204,204,204);fill-rule:nonzero;stroke-width:6.69px;stroke:rgb(25,43,59);"/>
                <path d="M456.255,144.32C448.222,149.006 438.182,146.663 433.161,138.631C428.475,130.598 430.818,120.557 438.851,115.537C443.202,112.859 448.222,112.525 452.908,113.863C453.912,114.198 454.916,114.533 455.586,115.202C457.928,116.541 458.598,119.218 457.259,121.561C456.924,122.231 456.59,122.565 456.255,122.9C454.916,123.904 452.908,124.239 450.9,123.235C448.557,121.896 445.545,121.896 443.202,123.235C439.52,125.243 438.516,129.929 440.524,133.61C442.533,137.292 447.218,138.296 450.9,136.288C452.908,134.949 454.247,132.941 454.581,130.933C454.916,128.255 457.259,126.582 459.602,126.916C462.279,127.251 463.953,129.594 463.618,131.937C463.283,137.292 460.606,141.643 456.255,144.32Z" style="fill:rgb(204,204,204);fill-rule:nonzero;stroke-width:6.69px;stroke:rgb(25,43,59);"/>
                <path d="M357.186,277.528C357.186,277.528 358.859,287.569 362.541,291.585" style="fill:rgb(204,204,204);fill-rule:nonzero;stroke-width:3.35px;stroke:rgb(25,43,59);"/>
                <path d="M366.557,273.512C366.557,273.512 368.566,281.879 374.255,286.23" style="fill:rgb(204,204,204);fill-rule:nonzero;stroke-width:3.35px;stroke:rgb(25,43,59);"/>
                <path d="M372.917,266.483C372.917,266.483 377.602,271.838 386.304,273.512" style="fill:rgb(204,204,204);fill-rule:nonzero;stroke-width:3.35px;stroke:rgb(25,43,59);"/>
                <path d="M374.59,258.785C374.59,258.785 379.945,260.793 389.651,258.785" style="fill:rgb(204,204,204);fill-rule:nonzero;stroke-width:3.35px;stroke:rgb(25,43,59);"/>
                <path d="M373.586,248.41C373.586,248.41 381.284,248.075 388.312,245.063" style="fill:rgb(204,204,204);fill-rule:nonzero;stroke-width:3.35px;stroke:rgb(25,43,59);"/>
                <path d="M370.908,237.365C370.908,237.365 377.268,237.699 385.635,234.353" style="fill:rgb(204,204,204);fill-rule:nonzero;stroke-width:3.35px;stroke:rgb(25,43,59);"/>
                <path d="M369.904,223.977C369.904,223.977 372.582,225.651 384.965,223.977" style="fill:rgb(204,204,204);fill-rule:nonzero;stroke-width:3.35px;stroke:rgb(25,43,59);"/>
                <path d="M371.243,209.92C371.243,209.92 374.925,213.602 384.631,214.606" style="fill:rgb(204,204,204);fill-rule:nonzero;stroke-width:3.35px;stroke:rgb(25,43,59);"/>
                <path d="M375.929,197.536C375.929,197.536 380.28,202.222 388.647,205.234" style="fill:rgb(204,204,204);fill-rule:nonzero;stroke-width:3.35px;stroke:rgb(25,43,59);"/>
                <path d="M384.631,185.822C384.631,185.822 388.982,193.52 395.341,196.198" style="fill:rgb(204,204,204);fill-rule:nonzero;stroke-width:3.35px;stroke:rgb(25,43,59);"/>
                <path d="M394.337,176.451C394.337,176.451 397.014,183.145 403.708,189.504" style="fill:rgb(204,204,204);fill-rule:nonzero;stroke-width:3.35px;stroke:rgb(25,43,59);"/>
                <path d="M404.712,171.43C404.712,171.43 407.39,179.128 413.08,184.149" style="fill:rgb(204,204,204);fill-rule:nonzero;stroke-width:3.35px;stroke:rgb(25,43,59);"/>
                <path d="M414.084,165.071C414.084,165.071 418.435,172.769 424.124,176.451" style="fill:rgb(204,204,204);fill-rule:nonzero;stroke-width:3.35px;stroke:rgb(25,43,59);"/>
                <path d="M421.782,158.043C421.782,158.043 426.467,165.741 433.161,167.749" style="fill:rgb(204,204,204);fill-rule:nonzero;stroke-width:3.35px;stroke:rgb(25,43,59);"/>
                <path d="M428.475,148.671C428.475,148.671 434.165,155.7 441.194,156.704" style="fill:rgb(204,204,204);fill-rule:nonzero;stroke-width:3.35px;stroke:rgb(25,43,59);"/>
            </g>
            <g>
                <path d="M357.521,417.429L246.738,443.535L249.415,425.462L347.145,402.703Z" style="fill:rgb(57,177,82);fill-rule:nonzero;stroke-width:6.69px;stroke:rgb(25,43,59);"/>
                <g>
                    <path d="M320.029,499.002C304.372,502.674 291.167,503.462 290.534,500.762C289.901,498.063 302.08,492.898 317.737,489.227C333.394,485.555 346.6,484.767 347.233,487.467C347.866,490.166 335.686,495.331 320.029,499.002Z" style="fill:none;stroke-width:6.69px;stroke:rgb(57,177,82);stroke-opacity:0.211765;"/>
                </g>
                <g>
                    <path d="M315.602,480.302C296.886,484.691 281.2,486.06 280.567,483.361C279.934,480.661 294.593,474.915 313.31,470.526C332.026,466.138 347.712,464.768 348.345,467.468C348.978,470.167 334.319,475.913 315.602,480.302Z" style="fill:none;stroke-width:6.69px;stroke:rgb(57,177,82);stroke-opacity:0.501961;"/>
                </g>
                <g>
                    <path d="M310.332,458.432C288.377,463.58 270.065,465.566 269.432,462.866C268.799,460.167 286.084,453.805 308.04,448.656C329.996,443.508 348.308,441.523 348.941,444.222C349.574,446.922 332.288,453.283 310.332,458.432Z" style="fill:none;stroke-width:6.69px;stroke:rgb(57,177,82);"/>
                </g>
                <path d="M230.003,96.1246L216.95,99.1369L211.595,62.6554L218.289,60.9819Z" style="fill:rgb(79,160,119);fill-rule:nonzero;stroke-width:6.69px;stroke:rgb(25,43,59);"/>
                <path d="M366.557,398.017L229.668,430.147L176.117,203.226C167.415,166.41 190.175,129.594 226.991,121.227L229.668,120.557C267.154,111.855 304.639,134.949 313.341,172.434Z" style="fill:rgb(250,248,209);fill-rule:nonzero;stroke-width:1px;stroke-linecap:buttstroke:rgb(25,43,59);"/>
                <path d="M366.557,398.017L229.668,430.147L176.117,203.226C167.415,166.41 190.175,129.594 226.991,121.227L229.668,120.557C267.154,111.855 304.639,134.949 313.341,172.434Z" style="fill:none;stroke-width:6.69px;stroke:rgb(25,43,59);"/>
                <g>
                    <path d="M221.964,411.513L365.297,377.716L369.905,397.261L226.573,431.059L221.964,411.513Z" style="fill:rgb(139,124,185);stroke-width:6.69px;stroke:rgb(25,43,59);"/>
                </g>
                <path d="M224.313,421.111L250.419,415.086" style="fill:rgb(79,160,119);fill-rule:nonzero;stroke-width:6.69px;stroke:rgb(25,43,59);"/>
                <path d="M214.607,45.9208C220.522,45.9208 225.317,50.7159 225.317,56.6309C225.317,62.546 220.522,67.3411 214.607,67.3411C208.692,67.3411 203.897,62.546 203.897,56.6309C203.897,50.7159 208.692,45.9208 214.607,45.9208Z" style="fill:rgb(57,177,82);stroke-width:6.69px;stroke:rgb(25,43,59);"/>
                <path d="M210.925,293.258L224.983,351.829" style="fill:none;stroke-width:6.69px;stroke:rgb(25,43,59);"/>
                <path d="M214.942,396.009L216.281,402.368" style="fill:none;stroke-width:6.69px;stroke:rgb(25,43,59);"/>
                <path d="M191.179,208.581L195.864,227.993" style="fill:none;stroke-width:6.69px;stroke:rgb(25,43,59);"/>
                <path d="M198.877,241.046L203.228,260.793" style="fill:none;stroke-width:6.69px;stroke:rgb(25,43,59);"/>
                <path d="M241.048,244.728C242.721,251.087 252.427,259.12 261.129,257.112C269.831,255.103 274.852,243.724 273.513,237.03Z" style="fill:white;fill-rule:nonzero;stroke-width:6.69px;stroke:rgb(25,43,59);"/>
                <path d="M264.142,205.234C264.142,200.883 267.154,196.532 271.839,195.528C276.525,194.524 280.876,196.532 283.219,200.549" style="fill:none;stroke-width:6.69px;stroke:rgb(25,43,59);"/>
                <path d="M215.276,216.614C215.276,212.263 218.289,207.912 222.974,206.908C227.66,205.904 232.011,207.912 234.354,211.928" style="fill:none;stroke-width:6.69px;stroke:rgb(25,43,59);"/>
                <path d="M173.105,260.793C166.411,262.467 159.718,258.45 158.379,251.757L153.693,231.34C152.02,224.646 156.371,218.287 162.73,216.614L163.064,216.614Z" style="fill:rgb(204,204,204);fill-rule:nonzero;stroke-width:6.69px;stroke:rgb(25,43,59);"/>
                <path d="M341.121,221.3L330.411,177.12L330.745,177.12C337.439,175.447 344.468,179.798 346.141,186.492L350.827,206.238C352.166,212.598 347.815,219.626 341.121,221.3Z" style="fill:rgb(204,204,204);fill-rule:nonzero;stroke-width:6.69px;stroke:rgb(25,43,59);"/>
                <path d="M343.464,232.344C324.051,150.345 318.027,121.561 292.925,101.814C262.468,78.0512 220.632,89.4308 220.632,89.4308L221.301,89.0961C221.301,89.0961 178.795,97.4634 162.06,132.606C148.338,161.39 156.036,189.838 175.448,271.838" style="fill:rgb(197,239,249);fill-opacity:0.298039;fill-rule:nonzero;stroke-width:6.69px;stroke:rgb(25,43,59);"/>
                <path d="M293.26,101.814C264.476,79.0553 225.317,88.4267 221.301,89.4308C217.285,90.4349 178.126,99.4715 162.395,132.606C148.673,161.39 156.371,189.838 175.783,271.838L189.84,268.491C176.117,209.251 173.775,188.834 183.146,169.088C194.86,143.986 225.987,135.618 231.342,134.614C231.676,134.614 233.35,134.28 233.685,133.945C239.04,132.606 270.166,125.912 291.921,142.982C309.994,157.039 316.688,178.124 330.411,235.357L343.798,232.344C324.386,150.345 318.362,121.561 293.26,101.814Z" style="fill:rgb(128,147,154);fill-rule:nonzero;stroke-width:1px;stroke-linecap:buttstroke:rgb(25,43,59);"/>
                <clipPath id="tag1">
                    <path d="M293.26,101.814C264.476,79.0553 225.317,88.4267 221.301,89.4308C217.285,90.4349 178.126,99.4715 162.395,132.606C148.673,161.39 156.371,189.838 175.783,271.838L189.84,268.491C176.117,209.251 173.775,188.834 183.146,169.088C194.86,143.986 225.987,135.618 231.342,134.614C231.676,134.614 233.35,134.28 233.685,133.945C239.04,132.606 270.166,125.912 291.921,142.982C309.994,157.039 316.688,178.124 330.411,235.357L343.798,232.344C324.386,150.345 318.362,121.561 293.26,101.814Z"/>
                </clipPath>
                <g clip-path="url(#tag1)">
                    <path d="M145.326,260.459L407.39,199.21" style="fill:rgb(128,147,154);fill-rule:nonzero;stroke-width:6.69px;stroke:rgb(25,43,59);"/>
                </g>
                <clipPath id="tag2">
                    <path d="M293.26,101.814C264.476,79.0553 225.317,88.4267 221.301,89.4308C217.285,90.4349 178.126,99.4715 162.395,132.606C148.673,161.39 156.371,189.838 175.783,271.838L189.84,268.491C176.117,209.251 173.775,188.834 183.146,169.088C194.86,143.986 225.987,135.618 231.342,134.614C231.676,134.614 233.35,134.28 233.685,133.945C239.04,132.606 270.166,125.912 291.921,142.982C309.994,157.039 316.688,178.124 330.411,235.357L343.798,232.344C324.386,150.345 318.362,121.561 293.26,101.814Z"/>
                </clipPath>
                <g clip-path="url(#tag2)">
                    <path d="M141.309,244.393L403.374,182.81" style="fill:rgb(128,147,154);fill-rule:nonzero;stroke-width:6.69px;stroke:rgb(25,43,59);"/>
                </g>
                <path d="M293.26,101.814C264.476,79.0553 225.317,88.4267 221.301,89.4308C217.285,90.4349 178.126,99.4715 162.395,132.606C148.673,161.39 156.371,189.838 175.783,271.838L189.84,268.491C176.117,209.251 173.775,188.834 183.146,169.088C194.86,143.986 225.987,135.618 231.342,134.614C231.676,134.614 233.35,134.28 233.685,133.945C239.04,132.606 270.166,125.912 291.921,142.982C309.994,157.039 316.688,178.124 330.411,235.357L343.798,232.344C324.386,150.345 318.362,121.561 293.26,101.814Z" style="fill:none;stroke-width:6.69px;stroke:rgb(25,43,59);"/>
                <g>
                    <path d="M171.454,271.511L347.362,230.032L352.739,252.835L176.83,294.313L171.454,271.511Z" style="fill:rgb(255,224,103);stroke-width:6.69px;stroke:rgb(25,43,59);"/>
                </g>
                <g>
                    <path d="M196.496,289.883L333.314,257.622L337.155,273.91L200.337,306.171L196.496,289.883Z" style="fill:rgb(232,107,47);stroke-width:6.69px;stroke:rgb(25,43,59);"/>
                </g>
                <path d="M157.375,182.141C169.424,150.01 194.526,126.247 227.995,118.549C262.133,110.516 298.615,119.888 320.37,144.32" style="fill:none;stroke-width:6.69px;stroke:rgb(25,43,59);"/>
                <path d="M157.375,182.141C169.424,150.01 194.191,125.912 227.995,118.214C262.133,110.182 298.28,117.88 320.37,143.651L321.039,143.651C313.341,121.227 306.313,112.525 293.929,102.484C263.472,78.7206 221.97,91.4389 221.97,91.4389L222.64,91.1042C222.64,91.1042 179.799,98.4675 163.399,133.61C156.705,148.002 155.032,161.724 157.709,182.81Z" style="fill:rgb(83,145,199);fill-rule:nonzero;stroke-width:6.69px;stroke:rgb(25,43,59);"/>
                <path d="M217.285,257.112C224.678,257.112 230.672,263.105 230.672,270.499C230.672,277.893 224.678,283.887 217.285,283.887C209.891,283.887 203.897,277.893 203.897,270.499C203.897,263.105 209.891,257.112 217.285,257.112Z" style="fill:rgb(57,177,82);stroke-width:6.69px;stroke:rgb(25,43,59);"/>
                <path d="M306.313,236.026C313.707,236.026 319.7,242.02 319.7,249.414C319.7,256.807 313.707,262.801 306.313,262.801C298.919,262.801 292.925,256.807 292.925,249.414C292.925,242.02 298.919,236.026 306.313,236.026Z" style="fill:rgb(57,177,82);stroke-width:6.69px;stroke:rgb(25,43,59);"/>
                <path d="M221.97,90.4349L228.329,118.214" style="fill:none;stroke-width:6.69px;stroke:rgb(25,43,59);"/>
                <path d="M181.807,110.851L187.832,136.957" style="fill:none;stroke-width:6.69px;stroke:rgb(25,43,59);"/>
                <path d="M261.129,91.4389L267.154,116.876" style="fill:none;stroke-width:6.69px;stroke:rgb(25,43,59);"/>
                <path d="M143.652,243.055C144.761,243.055 145.66,243.954 145.66,245.063C145.66,246.172 144.761,247.071 143.652,247.071C142.543,247.071 141.644,246.172 141.644,245.063C141.644,243.954 142.543,243.055 143.652,243.055Z" style="fill:rgb(204,204,204);stroke-width:6.69px;stroke:rgb(25,43,59);"/>
                <path d="M154.028,242.385L143.987,244.728" style="fill:rgb(204,204,204);fill-rule:nonzero;stroke-width:6.69px;stroke:rgb(25,43,59);"/>
                <path d="M360.868,191.847C361.977,191.847 362.876,192.746 362.876,193.855C362.876,194.964 361.977,195.863 360.868,195.863C359.759,195.863 358.859,194.964 358.859,193.855C358.859,192.746 359.759,191.847 360.868,191.847Z" style="fill:rgb(204,204,204);stroke-width:6.69px;stroke:rgb(25,43,59);"/>
                <path d="M350.157,196.198L360.198,193.855" style="fill:rgb(204,204,204);fill-rule:nonzero;stroke-width:6.69px;stroke:rgb(25,43,59);"/>
                <path d="M173.775,281.209L193.521,276.858" style="fill:rgb(128,147,154);fill-rule:nonzero;stroke-width:6.69px;stroke:rgb(25,43,59);"/>
                <path d="M242.387,265.144L281.211,256.108" style="fill:rgb(128,147,154);fill-rule:nonzero;stroke-width:6.69px;stroke:rgb(25,43,59);"/>
                <path d="M330.076,244.393L349.823,239.708" style="fill:rgb(128,147,154);fill-rule:nonzero;stroke-width:6.69px;stroke:rgb(25,43,59);"/>
                <path d="M172.101,135.953C172.101,135.953 184.485,111.855 214.607,103.153" style="fill:none;stroke-width:6.69px;stroke:rgb(25,43,59);"/>
                <path d="" style="fill:none;stroke-width:6.69px;stroke:rgb(25,43,59);"/>
                <g>
                    <path d="M208.825,144.073C214.612,148.967 211.754,161.858 202.443,172.866C193.132,183.874 180.893,188.831 175.107,183.936C169.321,179.042 172.178,166.151 181.489,155.143C190.8,144.134 203.039,139.178 208.825,144.073Z" style="fill:white;fill-opacity:0.298039;stroke-width:1px;stroke-linecap:buttstroke:rgb(25,43,59);"/>
                </g>
                <path d="M207.913,287.234L211.595,303.299" style="fill:rgb(83,145,199);fill-rule:nonzero;stroke-width:3.35px;stroke:rgb(25,43,59);"/>
                <path d="M224.313,283.218L227.995,299.618" style="fill:rgb(83,145,199);fill-rule:nonzero;stroke-width:3.35px;stroke:rgb(25,43,59);"/>
                <path d="M240.378,279.536L244.395,295.601" style="fill:rgb(83,145,199);fill-rule:nonzero;stroke-width:3.35px;stroke:rgb(25,43,59);"/>
                <path d="M256.778,275.52L260.46,291.92" style="fill:rgb(83,145,199);fill-rule:nonzero;stroke-width:3.35px;stroke:rgb(25,43,59);"/>
                <path d="M273.178,271.838L276.86,287.903" style="fill:rgb(83,145,199);fill-rule:nonzero;stroke-width:3.35px;stroke:rgb(25,43,59);"/>
                <path d="M289.243,267.822L293.26,284.222" style="fill:rgb(83,145,199);fill-rule:nonzero;stroke-width:3.35px;stroke:rgb(25,43,59);"/>
                <path d="M305.643,264.14L309.325,280.205" style="fill:rgb(83,145,199);fill-rule:nonzero;stroke-width:3.35px;stroke:rgb(25,43,59);"/>
                <path d="M322.043,260.124L325.725,276.524" style="fill:rgb(83,145,199);fill-rule:nonzero;stroke-width:3.35px;stroke:rgb(25,43,59);"/>
                <path d="M368.566,376.931L218.623,412.409L196.534,319.03C195.195,313.005 198.877,306.646 204.901,305.307L332.419,275.185C338.443,273.846 344.802,277.528 346.141,283.552Z" style="fill:rgb(250,248,209);fill-rule:nonzero;stroke-width:1px;stroke-linecap:buttstroke:rgb(25,43,59);"/>
                <clipPath id="tag3">
                    <path d="M368.566,376.931L218.623,412.409L196.534,319.03C195.195,313.005 198.877,306.646 204.901,305.307L332.419,275.185C338.443,273.846 344.802,277.528 346.141,283.552Z"/>
                </clipPath>
                <g clip-path="url(#tag3)">
                    <path d="M366.557,353.838L189.84,396.344L195.195,418.768L371.912,376.931Z" style="fill:rgb(255,224,103);fill-rule:nonzero;stroke-width:6.69px;stroke:rgb(25,43,59);"/>
                </g>
                <path d="M368.566,376.931L218.623,412.409L196.534,319.03C195.195,313.005 198.877,306.646 204.901,305.307L332.419,275.185C338.443,273.846 344.802,277.528 346.141,283.552Z" style="fill:none;stroke-width:6.69px;stroke:rgb(25,43,59);"/>
                <g>
                    <path d="M241.445,320.505L306.596,305.142L314.278,337.718L249.126,353.08L241.445,320.505Z" style="fill:rgb(139,124,185);stroke-width:6.69px;stroke:rgb(25,43,59);"/>
                </g>
                <path d="M288.909,309.324L296.607,341.789" style="fill:rgb(250,248,209);fill-rule:nonzero;stroke-width:3.35px;stroke:rgb(25,43,59);"/>
                <g>
                    <path d="M289.33,311.024L305.618,307.184L307.923,316.957L291.635,320.797L289.33,311.024Z" style="fill:rgb(79,160,119);stroke-width:3.35px;stroke:rgb(25,43,59);"/>
                </g>
                <g>
                    <path d="M291.331,320.8L307.619,316.96L309.923,326.733L293.635,330.573L291.331,320.8Z" style="fill:rgb(255,224,103);stroke-width:3.35px;stroke:rgb(25,43,59);"/>
                </g>
                <g>
                    <path d="M293.657,330.5L309.945,326.659L312.249,336.432L295.962,340.272L293.657,330.5Z" style="fill:rgb(229,66,48);stroke-width:3.35px;stroke:rgb(25,43,59);"/>
                </g>
                <path d="M212.934,330.744L227.995,392.997" style="fill:none;stroke-width:6.69px;stroke:rgb(25,43,59);"/>
            </g>
            <g>
                <path d="M445.879,108.174L462.614,137.961" style="fill:rgb(204,204,204);fill-rule:nonzero;stroke-width:6.69px;stroke:rgb(25,43,59);"/>
            </g>
        </g>
    </g>
</svg>
